<svg width="64" height="69" viewBox="0 0 64 69" fill="none" xmlns="http://www.w3.org/2000/svg">
<g filter="url(#filter0_d_24_891)">
<path d="M29.8418 17.1444L8.08008 26.423V45.284L29.8418 54.7216L51.6035 45.284V26.423L29.8418 17.1444Z" fill="#F5D221"/>
<path d="M29.8418 14.1486L8.08008 23.4139V42.2881L29.8418 51.7257L51.6035 42.2881V23.4139L29.8418 14.1486Z" fill="#96DC75"/>
<path d="M29.8434 6.54578L8.18848 15.7848L17.3126 19.4808L29.8434 14.1485L42.3742 19.4808L51.4984 15.7848L29.8434 6.54578Z" fill="#8DB296"/>
<path d="M29.8414 14.1486L17.3105 19.4808L29.8414 24.575L42.3722 19.4808L29.8414 14.1486Z" fill="#5EA259"/>
<path d="M8.08008 23.4139V34.6854L29.8418 44.123L51.6035 34.6854V34.659L29.8418 44.123L8.08008 34.659V23.4139Z" fill="#5EA259"/>
<path d="M8.08008 15.7452V15.8243L8.17159 15.7848L8.08008 15.7452ZM51.6035 15.7452L51.512 15.7848L51.6035 15.8243V34.6721V15.7452Z" fill="#8FC49C"/>
<path d="M8.18819 15.7848L8.09668 15.8243V23.4271L17.3276 19.494L8.18819 15.7848ZM51.4981 15.7848L42.375 19.4808L51.6059 23.4139V34.659V15.8243L51.4981 15.7848Z" fill="#5CA16D"/>
<path d="M42.3726 19.4808L29.8418 24.5751L17.311 19.4808L8.08008 23.4139V34.659L29.8418 44.123L51.6035 34.659V23.4139L42.3726 19.4808Z" fill="#479B52"/>
<path d="M22.085 29.2943H26.3121V28.6827H22.085C21.682 28.6827 21.3333 28.8709 21.1045 29.2191C20.9193 29.5014 20.8213 29.8777 20.8213 30.3011C20.8213 30.7246 20.9193 31.0915 21.1045 31.3832C21.3333 31.7314 21.682 31.9196 22.085 31.9196H26.3121V31.3079H22.085C21.8345 31.3079 21.6275 31.0257 21.5512 30.6117H26.116V30H21.5512C21.6275 29.5766 21.8236 29.2943 22.085 29.2943Z" fill="#F7F7F7"/>
<path d="M35.3764 29.2943H39.6143V28.6827H35.3764C34.9733 28.6827 34.6247 28.8709 34.4068 29.2191C34.2216 29.5014 34.1235 29.8777 34.1235 30.3011C34.1235 30.7246 34.2216 31.0915 34.4068 31.3832C34.6356 31.7314 34.9842 31.9196 35.3764 31.9196H39.6143V31.3079H35.3764C35.1258 31.3079 34.9188 31.0257 34.8535 30.6117H39.4183V30H34.8535C34.9188 29.5766 35.1258 29.2943 35.3764 29.2943Z" fill="#F7F7F7"/>
<path d="M19.0565 30.5929C18.904 31.3174 18.6207 31.3174 18.3919 31.3174H14.8839V28.6357H14.1758V31.929H18.3919C19.209 31.929 19.6121 31.4962 19.7755 30.5929H19.0565Z" fill="#F7F7F7"/>
<path d="M46.0095 30.5929C45.857 31.3174 45.5737 31.3174 45.3558 31.3174H41.8478V28.6357H41.1396V31.929H45.3667C46.1838 31.929 46.5869 31.4962 46.7503 30.5929H46.0095Z" fill="#F7F7F7"/>
<path d="M30.0707 31.929H30.7025L33.3826 28.6263H32.511L30.3866 31.2986L28.2622 28.6263H27.3906L30.0707 31.929Z" fill="#F7F7F7"/>
<path fill-rule="evenodd" clip-rule="evenodd" d="M36.3804 37.4327L37.9407 36.2034L37.2016 34.9316L36.3804 37.4327Z" fill="#9FD402"/>
<path fill-rule="evenodd" clip-rule="evenodd" d="M35.855 37.4327L37.4153 36.2034L36.6762 34.9316L35.855 37.4327Z" fill="#F5D221"/>
<path fill-rule="evenodd" clip-rule="evenodd" d="M28.7623 34.0844L28.1119 36.0524L30.421 36.0662L31.0553 34.0844H31.6407L30.8802 36.3883C30.8511 36.4762 30.7402 36.5477 30.6327 36.5477H27.6729C27.4934 36.5477 27.387 36.4286 27.4356 36.282L28.1609 34.0844H28.7623ZM31.7058 35.1027L34.6329 35.089L34.8282 34.566H31.8521L32.0309 34.0843L35.2023 34.0596C35.3997 34.058 35.5172 34.1879 35.4652 34.3498L35.1664 35.2776C35.1143 35.4394 34.9119 35.5706 34.7145 35.5706H32.0961L31.7874 36.589H31.2178L31.7058 35.1027Z" fill="#F7F7F7"/>
</g>
<defs>
<filter id="filter0_d_24_891" x="-2" y="0.545776" width="67" height="68.4542" filterUnits="userSpaceOnUse" color-interpolation-filters="sRGB">
<feFlood flood-opacity="0" result="BackgroundImageFix"/>
<feColorMatrix in="SourceAlpha" type="matrix" values="0 0 0 0 0 0 0 0 0 0 0 0 0 0 0 0 0 0 127 0" result="hardAlpha"/>
<feOffset dx="2" dy="4"/>
<feGaussianBlur stdDeviation="5"/>
<feComposite in2="hardAlpha" operator="out"/>
<feColorMatrix type="matrix" values="0 0 0 0 0 0 0 0 0 0 0 0 0 0 0 0 0 0 0.25 0"/>
<feBlend mode="normal" in2="BackgroundImageFix" result="effect1_dropShadow_24_891"/>
<feBlend mode="normal" in="SourceGraphic" in2="effect1_dropShadow_24_891" result="shape"/>
</filter>
</defs>
</svg>
