<svg width="27" height="26" viewBox="0 0 27 26" fill="none" xmlns="http://www.w3.org/2000/svg">
<g id="vectores">
<path id="Vector" d="M11.4834 8.77779H13.5998V5.61112V4.55557V3.50001V0.333344H11.4834L9.47809 3.50001L8.87491 4.51334H8.73735H10.6897L11.4834 3.23612V8.77779ZM7.25057 18.2778C6.08126 18.2778 5.14475 19.2225 5.14475 20.3889C5.14475 21.5553 6.08126 22.5 7.25057 22.5C8.41989 22.5 9.36698 21.5553 9.36698 20.3889C9.36698 19.2225 8.41989 18.2778 7.25057 18.2778ZM17.8326 18.2778C16.6633 18.2778 15.7268 19.2225 15.7268 20.3889C15.7268 21.5553 16.6633 22.5 17.8326 22.5C19.0019 22.5 19.949 21.5553 19.949 20.3889C19.949 19.2225 19.0019 18.2778 17.8326 18.2778ZM7.43576 14.8472C7.43576 14.7997 7.44634 14.7575 7.46751 14.7206L8.41989 13H16.3035C17.0971 13 17.7903 12.562 18.1553 11.9128L22.24 4.51334L20.3881 3.50001H20.3829L19.2135 5.61112L16.2982 10.8889H8.87491L8.73735 10.6039L6.36169 5.61112L5.35639 3.50001L4.35639 1.3889H0.901367V3.50001H3.01777L6.82729 11.5064L5.39343 14.0925C5.22941 14.3986 5.13417 14.7417 5.13417 15.1111C5.13417 16.2775 6.08126 17.2222 7.25057 17.2222H19.949V15.1111H7.70031C7.55216 15.1111 7.43576 14.995 7.43576 14.8472Z" fill="#F7F7F7"/>
</g>
</svg>
