<svg width="49" height="51" viewBox="0 0 49 51" fill="none" xmlns="http://www.w3.org/2000/svg">
<g filter="url(#filter0_d_24_891)">
<path d="M22.2181 13.3402L8.32764 19.1393V30.9274L22.2181 36.8259L36.1085 30.9274V19.1393L22.2181 13.3402Z" fill="#F5D221"/>
<path d="M22.2181 11.4678L8.32764 17.2586V29.055L22.2181 34.9535L36.1085 29.055V17.2586L22.2181 11.4678Z" fill="#96DC75"/>
<path d="M22.2193 6.71606L8.39697 12.4905L14.2209 14.8005L22.2193 11.4678L30.2177 14.8005L36.0416 12.4905L22.2193 6.71606Z" fill="#8DB296"/>
<path d="M22.2181 11.4678L14.2197 14.8004L22.2181 17.9843L30.2165 14.8004L22.2181 11.4678Z" fill="#5EA259"/>
<path d="M8.32764 17.2587V24.3033L22.2181 30.2018L36.1085 24.3033V24.2869L22.2181 30.2018L8.32764 24.2869V17.2587Z" fill="#5EA259"/>
<path d="M8.32764 12.4657V12.5151L8.38605 12.4904L8.32764 12.4657ZM36.1085 12.4657L36.0501 12.4904L36.1085 12.5151V24.295V12.4657Z" fill="#8FC49C"/>
<path d="M8.3963 12.4905L8.33789 12.5152V17.2669L14.2299 14.8087L8.3963 12.4905ZM36.0409 12.4905L30.2177 14.8005L36.1097 17.2587V24.2869V12.5152L36.0409 12.4905Z" fill="#5CA16D"/>
<path d="M30.2165 14.8004L22.2181 17.9843L14.2197 14.8004L8.32764 17.2586V24.2868L22.2181 30.2017L36.1085 24.2868V17.2586L30.2165 14.8004Z" fill="#479B52"/>
<path d="M17.2666 20.934H19.9647V20.5518H17.2666C17.0093 20.5518 16.7868 20.6694 16.6408 20.887C16.5225 21.0634 16.46 21.2986 16.46 21.5633C16.46 21.8279 16.5225 22.0573 16.6408 22.2396C16.7868 22.4572 17.0093 22.5748 17.2666 22.5748H19.9647V22.1925H17.2666C17.1067 22.1925 16.9746 22.0161 16.9259 21.7573H19.8396V21.3751H16.9259C16.9746 21.1104 17.0997 20.934 17.2666 20.934Z" fill="#F7F7F7"/>
<path d="M25.7504 20.934H28.4555V20.5518H25.7504C25.4931 20.5518 25.2706 20.6694 25.1315 20.887C25.0133 21.0634 24.9507 21.2986 24.9507 21.5633C24.9507 21.8279 25.0133 22.0573 25.1315 22.2396C25.2775 22.4572 25.5 22.5748 25.7504 22.5748H28.4555V22.1925H25.7504C25.5904 22.1925 25.4583 22.0161 25.4166 21.7573H28.3303V21.3751H25.4166C25.4583 21.1104 25.5904 20.934 25.7504 20.934Z" fill="#F7F7F7"/>
<path d="M15.3336 21.7456C15.2363 22.1984 15.0555 22.1984 14.9094 22.1984H12.6703V20.5223H12.2183V22.5806H14.9094C15.431 22.5806 15.6883 22.3101 15.7926 21.7456H15.3336Z" fill="#F7F7F7"/>
<path d="M32.5376 21.7456C32.4402 22.1984 32.2594 22.1984 32.1204 22.1984H29.8812V20.5223H29.4292V22.5806H32.1273C32.6489 22.5806 32.9062 22.3101 33.0105 21.7456H32.5376Z" fill="#F7F7F7"/>
<path d="M22.364 22.5807H22.7673L24.478 20.5165H23.9217L22.5656 22.1866L21.2096 20.5165H20.6533L22.364 22.5807Z" fill="#F7F7F7"/>
<path fill-rule="evenodd" clip-rule="evenodd" d="M26.3916 26.0205L27.3875 25.2521L26.9158 24.4573L26.3916 26.0205Z" fill="#9FD402"/>
<path fill-rule="evenodd" clip-rule="evenodd" d="M26.0562 26.0205L27.0521 25.2521L26.5803 24.4573L26.0562 26.0205Z" fill="#F5D221"/>
<path fill-rule="evenodd" clip-rule="evenodd" d="M21.5292 23.9278L21.114 25.1578L22.5879 25.1663L22.9928 23.9278H23.3664L22.881 25.3677C22.8624 25.4227 22.7916 25.4673 22.723 25.4673H20.8338C20.7192 25.4673 20.6513 25.3929 20.6823 25.3012L21.1453 23.9278H21.5292ZM23.408 24.5642L25.2764 24.5556L25.401 24.2287H23.5014L23.6155 23.9277L25.6398 23.9122C25.7658 23.9113 25.8408 23.9924 25.8076 24.0936L25.6169 24.6735C25.5836 24.7746 25.4544 24.8566 25.3284 24.8566H23.6571L23.4601 25.4931H23.0965L23.408 24.5642Z" fill="#F7F7F7"/>
</g>
<defs>
<filter id="filter0_d_24_891" x="-1" y="0.716064" width="50" height="50.2839" filterUnits="userSpaceOnUse" color-interpolation-filters="sRGB">
<feFlood flood-opacity="0" result="BackgroundImageFix"/>
<feColorMatrix in="SourceAlpha" type="matrix" values="0 0 0 0 0 0 0 0 0 0 0 0 0 0 0 0 0 0 127 0" result="hardAlpha"/>
<feOffset dx="2" dy="4"/>
<feGaussianBlur stdDeviation="5"/>
<feComposite in2="hardAlpha" operator="out"/>
<feColorMatrix type="matrix" values="0 0 0 0 0 0 0 0 0 0 0 0 0 0 0 0 0 0 0.25 0"/>
<feBlend mode="normal" in2="BackgroundImageFix" result="effect1_dropShadow_24_891"/>
<feBlend mode="normal" in="SourceGraphic" in2="effect1_dropShadow_24_891" result="shape"/>
</filter>
</defs>
</svg>
